<?xml version="1.0" encoding="UTF-8" standalone="no"?>
<!-- Uploaded to: SVG Repo, www.svgrepo.com, Generator: SVG Repo Mixer Tools -->

<svg
   width="800px"
   height="800px"
   viewBox="0 0 20 20"
   fill="none"
   version="1.1"
   id="svg1"
   sodipodi:docname="menu.svg"
   inkscape:version="1.4 (e7c3feb100, 2024-10-09)"
   xmlns:inkscape="http://www.inkscape.org/namespaces/inkscape"
   xmlns:sodipodi="http://sodipodi.sourceforge.net/DTD/sodipodi-0.dtd"
   xmlns="http://www.w3.org/2000/svg"
   xmlns:svg="http://www.w3.org/2000/svg">
  <defs
     id="defs1" />
  <sodipodi:namedview
     id="namedview1"
     pagecolor="#ffffff"
     bordercolor="#000000"
     borderopacity="0.25"
     inkscape:showpageshadow="2"
     inkscape:pageopacity="0.0"
     inkscape:pagecheckerboard="0"
     inkscape:deskcolor="#d1d1d1"
     inkscape:zoom="1.4142136"
     inkscape:cx="521.49125"
     inkscape:cy="463.15494"
     inkscape:window-width="1570"
     inkscape:window-height="766"
     inkscape:window-x="186"
     inkscape:window-y="174"
     inkscape:window-maximized="0"
     inkscape:current-layer="svg1" />
  <path
     fill="#000000"
     fill-rule="evenodd"
     d="M19 4a1 1 0 01-1 1H2a1 1 0 010-2h16a1 1 0 011 1zm0 6a1 1 0 01-1 1H2a1 1 0 110-2h16a1 1 0 011 1zm-1 7a1 1 0 100-2H2a1 1 0 100 2h16z"
     id="path1" />
  <path
     style="fill:#6600ff"
     d="m 340.27148,121.62305 c -88.35998,0.25067 -176.73359,-0.21553 -265.08398,1.00586 -18.804594,2.08583 -34.756079,20.26269 -32.575654,39.38082 -0.132067,19.67799 19.033348,37.1108 38.653541,35.47622 189.836463,1.15505 379.680553,0.83367 569.519623,0.47775 25.07639,-0.29803 50.20829,0.24776 75.2521,-0.78597 18.66251,-2.67101 33.81759,-21.12954 31.3457,-40.08789 -0.39548,-19.50993 -19.40922,-35.95994 -38.73813,-34.65178 -126.11948,-1.04957 -252.25016,-0.7404 -378.3732,-0.81501 z"
     id="path2"
     transform="scale(0.025)" />
  <path
     style="fill:#6600ff"
     d="m 340.27148,361.62305 c -88.35998,0.25067 -176.73359,-0.21553 -265.08398,1.00586 -18.804594,2.08583 -34.756079,20.26269 -32.575654,39.38082 -0.132067,19.67799 19.033348,37.1108 38.653541,35.47622 189.836463,1.15505 379.680553,0.83367 569.519623,0.47775 25.07639,-0.29803 50.20829,0.24776 75.2521,-0.78597 18.66251,-2.67101 33.81759,-21.12954 31.3457,-40.08789 -0.39548,-19.50993 -19.40922,-35.95994 -38.73813,-34.65178 -126.11948,-1.04957 -252.25016,-0.7404 -378.3732,-0.81501 z"
     id="path3"
     transform="scale(0.025)" />
  <path
     style="fill:#6600ff"
     d="m 346.17969,363.8457 c -91.93086,0.31126 -183.87546,-0.4794 -275.794924,1.24805 -14.594844,5.44732 -27.331584,19.79431 -25.610177,36.11493 -0.377397,15.75113 12.671641,30.3292 27.604224,33.71488 174.507227,1.61832 349.026537,1.04393 523.539147,1.01752 44.56804,-0.0881 89.13892,-0.0908 133.69923,-1.03483 14.59344,-5.44905 27.32975,-19.79461 25.60822,-36.11493 0.36588,-16.01163 -13.24819,-31.19546 -28.60976,-33.72812 -110.04922,-1.74199 -220.1209,-0.9312 -330.1801,-1.22531 -16.75196,0.003 -33.50391,0.005 -50.25586,0.008 z"
     id="path4"
     transform="scale(0.025)" />
  <path
     style="fill:#6600ff"
     d="m 346.17969,123.8457 c -91.93086,0.31126 -183.87546,-0.4794 -275.794924,1.24805 -14.594844,5.44732 -27.331584,19.79431 -25.610177,36.11493 -0.377397,15.75113 12.671641,30.3292 27.604224,33.71488 174.507227,1.61832 349.026537,1.04393 523.539147,1.01752 44.56804,-0.0881 89.13892,-0.0908 133.69923,-1.03483 14.59344,-5.44905 27.32975,-19.79461 25.60822,-36.11493 0.36588,-16.01163 -13.24819,-31.19546 -28.60976,-33.72812 -110.04922,-1.74199 -220.1209,-0.9312 -330.1801,-1.22531 -16.75196,0.003 -33.50391,0.005 -50.25586,0.008 z"
     id="path5"
     transform="scale(0.025)" />
  <path
     style="fill:#6600ff"
     d="m 340.27148,601.62305 c -88.35998,0.25067 -176.73359,-0.21553 -265.08398,1.00586 -18.804594,2.08583 -34.756079,20.26269 -32.575654,39.38082 -0.132067,19.67799 19.033348,37.1108 38.653541,35.47622 189.836463,1.15505 379.680553,0.83367 569.519623,0.47775 25.07639,-0.29803 50.20829,0.24776 75.2521,-0.78597 18.66251,-2.67101 33.81759,-21.12954 31.3457,-40.08789 -0.39548,-19.50993 -19.40922,-35.95994 -38.73813,-34.65178 -126.11948,-1.04957 -252.25016,-0.7404 -378.3732,-0.81501 z"
     id="path6"
     transform="scale(0.025)" />
  <path
     style="fill:#6600ff"
     d="m 346.17969,603.8457 c -91.93086,0.31126 -183.87546,-0.4794 -275.794924,1.24805 -14.594844,5.44732 -27.331584,19.79431 -25.610177,36.11493 -0.377397,15.75113 12.671641,30.3292 27.604224,33.71488 174.507227,1.61832 349.026537,1.04393 523.539147,1.01752 44.56804,-0.0881 89.13892,-0.0908 133.69923,-1.03483 14.59344,-5.44905 27.32975,-19.79461 25.60822,-36.11493 0.36588,-16.01163 -13.24819,-31.19546 -28.60976,-33.72812 -110.04922,-1.74199 -220.1209,-0.9312 -330.1801,-1.22531 -16.75196,0.003 -33.50391,0.005 -50.25586,0.008 z"
     id="path7"
     transform="scale(0.025)" />
</svg>
